<svg width="110" height="113" viewBox="0 0 110 113" fill="none" xmlns="http://www.w3.org/2000/svg">
<g clip-path="url(#clip0_103_1088)">
<path d="M1.0542 39.5569L1.68126 38.1301L9.97852 39.2642L9.82403 39.6118L4.17135 34.49L4.55304 33.6302L12.0506 34.3711L11.9052 34.6912L5.67994 29.0663L6.30701 27.6395L13.4592 34.3985L12.8685 35.7338L6.63417 35.1485L6.71596 34.9655L11.3054 39.2642L10.7237 40.6087L1.0542 39.5569Z" fill="white"/>
<path d="M17.8487 28.0693C17.367 28.7004 16.8035 29.1577 16.1401 29.4321C15.4858 29.7065 14.7588 29.7705 13.9863 29.615C13.2047 29.4595 12.3959 29.0571 11.5416 28.4077C10.6783 27.7492 10.0694 27.0541 9.72407 26.3407C9.36964 25.6273 9.24241 24.9139 9.34238 24.2097C9.43326 23.5054 9.72407 22.8378 10.2057 22.2067C10.6874 21.5665 11.2599 21.1092 11.9143 20.8348C12.5686 20.5604 13.2865 20.4964 14.0681 20.6519C14.8496 20.8073 15.6676 21.2098 16.5127 21.8591C17.367 22.5177 17.9759 23.2036 18.3303 23.917C18.6847 24.6396 18.812 25.353 18.7211 26.0572C18.6211 26.7614 18.3303 27.4291 17.8487 28.0693ZM16.8399 27.2919C17.3397 26.6334 17.4942 25.9292 17.3034 25.1792C17.1125 24.4292 16.5491 23.6975 15.6312 22.9841C14.7315 22.289 13.8863 21.9506 13.1048 21.9506C12.3232 21.9598 11.6871 22.289 11.1872 22.9475C10.6965 23.5969 10.5511 24.3011 10.751 25.0603C10.9509 25.8194 11.5053 26.5511 12.4141 27.2462C13.332 27.9504 14.1771 28.298 14.9496 28.2797C15.7221 28.2706 16.3492 27.9413 16.8399 27.2919Z" fill="white"/>
<path d="M21.4111 23.4689L15.2404 16.5178L17.7123 14.2953C18.5212 13.5728 19.3027 13.207 20.0661 13.2161C20.8295 13.2253 21.4838 13.5362 22.0382 14.1582C22.5834 14.7801 22.8197 15.466 22.7379 16.2252C22.6561 16.9843 22.2108 17.7251 21.4111 18.4568L19.9661 19.7556L22.438 22.5451L21.4111 23.4689ZM19.3391 19.0422L20.6932 17.8257C21.1839 17.3867 21.4565 16.9294 21.502 16.463C21.5474 15.9965 21.402 15.5667 21.0658 15.1917C20.7204 14.7984 20.3206 14.5972 19.8752 14.588C19.4299 14.5789 18.9755 14.7709 18.5121 15.1917L17.0671 16.4904L19.3391 19.0422ZM25.228 20.0391L20.4751 18.5666L21.5838 17.5696L26.5639 18.841L25.228 20.0391Z" fill="white"/>
<path d="M23.2196 9.85033L24.4101 9.11864L29.2085 17.094L28.018 17.8257L23.2196 9.85033ZM27.7817 7.06077L29.4085 6.06384L27.4727 14.4965L26.4822 12.8502L27.7817 7.06077ZM27.7454 11.643L34.425 13.902L32.8891 14.8349L27.3728 12.9234L27.7454 11.643Z" fill="white"/>
<path d="M38.8417 12.2374L35.7791 3.43887L37.0787 2.98157L40.1413 11.7801L38.8417 12.2374Z" fill="white"/>
<path d="M40.7229 1.76521L42.2678 1.46339L48.0296 7.71017L47.9205 7.72846L46.5755 0.640237L47.9296 0.375L49.6745 9.53024L48.2295 9.81377L42.1951 3.2926L42.4132 3.24687L43.831 10.6644L42.4769 10.9296L40.7229 1.76521Z" fill="white"/>
<path d="M55.409 9.30158L56.0633 0L59.1623 0.219506C60.1892 0.292675 60.9708 0.603642 61.4888 1.16155C62.0068 1.71947 62.234 2.45115 62.1704 3.35662C62.1068 4.25293 61.7796 4.93889 61.1889 5.41449C60.5982 5.89008 59.7893 6.0913 58.7533 6.01813L57.0539 5.89923L56.8085 9.39304L55.409 9.30158ZM57.1357 4.69195L58.8442 4.81085C59.4349 4.85658 59.8893 4.72853 60.2165 4.445C60.5436 4.16147 60.7254 3.76819 60.7617 3.25601C60.7981 2.74383 60.6709 2.32311 60.3891 1.9847C60.0983 1.6463 59.6621 1.46337 59.0714 1.41764L57.372 1.29875L57.1357 4.69195Z" fill="white"/>
<path d="M63.2518 10.015L65.4875 0.969482L68.7046 1.77434C69.7497 2.03958 70.4858 2.48773 70.9129 3.11881C71.3401 3.75904 71.4491 4.48158 71.2492 5.29559C71.0493 6.10044 70.613 6.68579 69.9405 7.04249C69.268 7.39919 68.4138 7.45406 67.3596 7.18883L65.4784 6.72238L64.5787 10.3534L63.2518 10.015ZM65.7147 5.79862L67.4686 6.23763C68.1048 6.39312 68.6319 6.36568 69.0408 6.13703C69.4498 5.90837 69.7133 5.55168 69.8406 5.05779C69.9678 4.55475 69.9133 4.10659 69.6679 3.7316C69.4316 3.35661 69.0136 3.09138 68.4047 2.93589L66.5417 2.46944L65.7147 5.79862ZM68.2138 11.2588L66.7507 6.47543L68.1957 6.84128L69.9496 11.6979L68.2138 11.2588Z" fill="white"/>
<path d="M74.5936 13.9295C73.8756 13.5911 73.3122 13.1338 72.9123 12.5485C72.5033 11.9631 72.2943 11.268 72.2761 10.4631C72.258 9.65828 72.4761 8.78026 72.9214 7.80163C73.3758 6.81385 73.921 6.06387 74.539 5.56998C75.157 5.07609 75.8204 4.79256 76.5293 4.73768C77.2381 4.68281 77.947 4.82 78.6649 5.15841C79.3829 5.49681 79.9554 5.95412 80.3644 6.53947C80.7733 7.12482 80.9914 7.81992 81.0096 8.61563C81.0278 9.42049 80.8097 10.3077 80.3644 11.2771C79.91 12.2558 79.3738 13.0058 78.7558 13.5088C78.1378 14.0118 77.4744 14.2954 76.7656 14.3502C76.0294 14.4051 75.3115 14.2679 74.5936 13.9295ZM75.1207 12.7771C75.8659 13.1247 76.5838 13.1247 77.2745 12.7771C77.9652 12.4296 78.5559 11.7162 79.0466 10.6552C79.5283 9.6217 79.6737 8.71624 79.5101 7.95711C79.3374 7.18884 78.874 6.63093 78.1287 6.28337C77.3926 5.93582 76.6838 5.94497 75.984 6.31081C75.2842 6.67666 74.7026 7.37176 74.2209 8.41442C73.7302 9.46622 73.5757 10.3717 73.7575 11.1308C73.9301 11.8808 74.3936 12.4296 75.1207 12.7771Z" fill="white"/>
<path d="M82.3637 18.5483C81.7639 18.1002 81.3277 17.5423 81.0732 16.8654C80.8097 16.1886 80.746 15.4569 80.8824 14.6612C81.0096 13.8747 81.364 13.0881 81.9275 12.3107C82.391 11.6796 82.8908 11.1766 83.427 10.8199C83.9632 10.4632 84.5175 10.2345 85.0901 10.1339C85.6626 10.0333 86.217 10.0516 86.7713 10.1888C87.3257 10.326 87.8437 10.5821 88.3254 10.9388C88.9615 11.4052 89.4068 11.9357 89.6613 12.5393C89.9248 13.143 89.9885 13.8381 89.8521 14.6429L88.5162 14.1491C88.5162 13.646 88.4344 13.2161 88.2799 12.8412C88.1163 12.4662 87.871 12.1643 87.5347 11.9174C87.1258 11.6156 86.6623 11.4601 86.1352 11.4418C85.6172 11.4235 85.0901 11.5607 84.5721 11.8442C84.045 12.1278 83.5633 12.5759 83.118 13.1887C82.7181 13.7466 82.4455 14.2954 82.3092 14.8533C82.1728 15.4021 82.1819 15.9142 82.3273 16.3898C82.4727 16.8654 82.7636 17.2587 83.1998 17.5788C83.5451 17.8349 83.9086 17.9813 84.2994 18.027C84.6902 18.0727 85.0719 17.9996 85.4536 17.8075C85.8353 17.6154 86.1988 17.2862 86.526 16.8289L86.8168 17.0484C86.3533 17.6794 85.8807 18.1825 85.39 18.53C84.8992 18.8867 84.3994 19.0696 83.8905 19.0971C83.3906 19.1062 82.8817 18.9233 82.3637 18.5483ZM84.5448 19.9111L85.6263 18.0544L86.5532 16.774L84.7902 15.4021L85.3264 14.6612L88.2072 16.774L85.4627 20.5605L84.5448 19.9111Z" fill="white"/>
<path d="M87.0076 22.0329L93.7781 15.6672L96.041 18.1092C96.7771 18.905 97.1497 19.6824 97.1679 20.4506C97.177 21.2189 96.8771 21.8866 96.2682 22.4628C95.6684 23.0298 94.9868 23.2768 94.2325 23.2128C93.4782 23.1487 92.7239 22.7189 91.9878 21.9232L90.67 20.4964L87.9527 23.0481L87.0076 22.0329ZM90.4974 25.792L91.8605 20.9811L92.8784 22.0786L91.7242 27.1181L90.4974 25.792ZM91.3607 19.847L92.5967 21.1823C93.0511 21.6671 93.5055 21.9232 93.9689 21.9597C94.4324 21.9963 94.8505 21.8409 95.2231 21.4933C95.6048 21.1366 95.7956 20.7342 95.7956 20.286C95.7956 19.8379 95.5866 19.3806 95.1685 18.9324L93.8508 17.5056L91.3607 19.847Z" fill="white"/>
<path d="M92.7512 28.5816L100.521 23.5146L103.684 28.4261L102.684 29.0755L100.276 25.3256L97.904 26.8713L100.176 30.3925L99.1763 31.0419L96.9043 27.5206L94.5142 29.0755L96.9225 32.8254L95.9047 33.4839L92.7512 28.5816Z" fill="white"/>
<path d="M97.9313 38.313C97.6859 37.7277 97.5677 37.1514 97.5677 36.5661C97.5677 35.9899 97.7132 35.4594 98.004 34.993C98.2857 34.5174 98.7401 34.1424 99.349 33.868L99.8761 35.121C99.5035 35.2765 99.2399 35.496 99.0763 35.7795C98.9128 36.0631 98.8401 36.374 98.8491 36.7307C98.8582 37.0783 98.94 37.435 99.0945 37.8008C99.249 38.1667 99.4399 38.4685 99.6671 38.7063C99.8943 38.9441 100.14 39.0996 100.394 39.1727C100.649 39.2459 100.894 39.2368 101.139 39.1362C101.466 38.999 101.685 38.7886 101.803 38.4959C101.921 38.2124 101.957 37.8283 101.921 37.3618L101.839 35.5143C101.803 34.7186 101.885 34.0692 102.066 33.5662C102.248 33.0631 102.639 32.6882 103.23 32.4412C103.902 32.1577 104.565 32.1851 105.211 32.5418C105.856 32.8894 106.374 33.5479 106.783 34.5082C107.165 35.4228 107.255 36.2185 107.046 36.9045C106.837 37.5905 106.383 38.1209 105.692 38.4959L105.165 37.2338C105.501 37.0143 105.729 36.7216 105.82 36.3466C105.92 35.9716 105.856 35.5234 105.629 34.993C105.411 34.4808 105.138 34.1241 104.793 33.932C104.447 33.74 104.111 33.7125 103.775 33.8589C103.493 33.9778 103.311 34.1607 103.22 34.4168C103.13 34.6729 103.102 35.0204 103.13 35.4594L103.23 37.563C103.266 38.2764 103.184 38.8892 102.957 39.4014C102.73 39.9136 102.339 40.2794 101.766 40.5264C101.285 40.7276 100.803 40.7824 100.33 40.691C99.8579 40.5995 99.4126 40.3526 98.9946 39.9593C98.5765 39.5569 98.2221 39.0173 97.9313 38.313Z" fill="white"/>
<path d="M100.494 46.4714C100.358 45.8494 100.349 45.2549 100.458 44.6879C100.567 44.1208 100.803 43.6269 101.167 43.2153C101.53 42.8038 102.039 42.5202 102.693 42.3648L102.984 43.6909C102.593 43.7733 102.293 43.947 102.084 44.194C101.875 44.4409 101.748 44.7427 101.694 45.0812C101.639 45.4287 101.657 45.7945 101.739 46.1787C101.821 46.572 101.957 46.9012 102.139 47.1756C102.321 47.45 102.53 47.6421 102.766 47.7701C103.002 47.889 103.248 47.9256 103.502 47.8707C103.848 47.7975 104.102 47.6238 104.266 47.3677C104.429 47.1024 104.538 46.7366 104.593 46.2701L104.847 44.4409C104.956 43.6544 105.147 43.0324 105.42 42.566C105.692 42.1087 106.138 41.8068 106.774 41.6697C107.492 41.5142 108.128 41.6697 108.7 42.127C109.273 42.5934 109.664 43.3342 109.882 44.3495C110.091 45.319 110.027 46.1147 109.7 46.7549C109.373 47.386 108.828 47.825 108.082 48.0719L107.792 46.7366C108.164 46.5811 108.437 46.3342 108.6 45.9866C108.764 45.6391 108.782 45.1818 108.664 44.6238C108.546 44.0842 108.337 43.6818 108.037 43.4257C107.737 43.1696 107.41 43.0873 107.056 43.1605C106.765 43.2245 106.547 43.3708 106.41 43.6086C106.274 43.8373 106.183 44.1757 106.129 44.6147L105.847 46.7C105.756 47.4134 105.556 47.9988 105.247 48.4561C104.938 48.9134 104.475 49.206 103.866 49.3432C103.357 49.453 102.875 49.4164 102.421 49.2426C101.966 49.0688 101.576 48.7396 101.239 48.2731C100.903 47.8158 100.649 47.2122 100.494 46.4714Z" fill="white"/>
<path d="M105.447 58.2148L106.647 58.3063L106.356 62.3306L105.156 62.2391L105.447 58.2148Z" fill="white"/>
<path d="M109.009 72.8304L108.401 74.2663L100.094 73.2236L100.24 72.8761L105.947 77.9339L105.574 78.8028L98.0767 78.1443L98.213 77.8241L104.502 83.385L103.884 84.8209L96.659 78.1443L97.2315 76.7998L103.475 77.312L103.393 77.4949L98.7583 73.2419L99.3308 71.9066L109.009 72.8304Z" fill="white"/>
<path d="M92.3331 84.5099C92.8057 83.8697 93.3692 83.4124 94.0235 83.138C94.6778 82.8545 95.3958 82.7905 96.1773 82.9368C96.9589 83.0831 97.7768 83.4764 98.6311 84.1167C99.5035 84.766 100.112 85.452 100.476 86.1654C100.83 86.8788 100.967 87.583 100.885 88.2964C100.794 89.0007 100.512 89.6775 100.04 90.3085C99.5671 90.9488 99.0037 91.4152 98.3493 91.6988C97.695 91.9823 96.9771 92.0554 96.1955 91.9091C95.4139 91.7628 94.596 91.3695 93.7418 90.7293C92.8784 90.0799 92.2695 89.4031 91.906 88.6897C91.5425 87.9763 91.4062 87.2629 91.4971 86.5587C91.5788 85.8178 91.8515 85.1502 92.3331 84.5099ZM93.3419 85.2691C92.8511 85.9367 92.7057 86.641 92.9057 87.391C93.1056 88.1409 93.6691 88.8635 94.6051 89.5677C95.5139 90.2537 96.3591 90.5829 97.1406 90.5738C97.9222 90.5646 98.5583 90.2171 99.0491 89.5586C99.5308 88.9092 99.6671 88.1958 99.4581 87.4367C99.249 86.6776 98.6856 85.955 97.7768 85.2691C96.8498 84.574 96.0047 84.2355 95.2322 84.263C94.4597 84.2813 93.8326 84.6105 93.3419 85.2691Z" fill="white"/>
<path d="M85.0446 92.6042L89.8158 94.031L88.7161 95.0462L83.7178 93.8298L85.0446 92.6042ZM88.8252 89.1287L95.0686 96.0065L92.6239 98.2565C91.8242 98.9882 91.0426 99.3631 90.2883 99.3631C89.5249 99.3631 88.8615 99.0613 88.2981 98.4394C87.7437 97.8266 87.4983 97.1406 87.571 96.3815C87.6437 95.6224 88.08 94.8724 88.8797 94.1407L90.3065 92.8237L87.7982 90.0616L88.8252 89.1287ZM90.9427 93.5279L89.6067 94.7535C89.116 95.2017 88.8524 95.659 88.8161 96.1254C88.7797 96.5919 88.9251 97.0126 89.2705 97.3876C89.6249 97.7717 90.0157 97.9729 90.461 97.9821C90.9063 97.9912 91.3607 97.79 91.8151 97.3693L93.2419 96.0523L90.9427 93.5279Z" fill="white"/>
<path d="M82.6182 101.019L75.9113 98.8327L77.4381 97.8815L82.9726 99.7381L82.6182 101.019ZM82.6272 105.601L81.0096 106.616L82.8544 98.165L83.8632 99.8022L82.6272 105.601ZM87.1621 102.765L85.9716 103.506L81.0823 95.5858L82.2637 94.845L87.1621 102.765Z" fill="white"/>
<path d="M71.5218 100.552L74.6753 109.314L73.3758 109.79L70.2223 101.028L71.5218 100.552Z" fill="white"/>
<path d="M69.7497 111.043L68.2047 111.363L62.3703 105.18L62.4794 105.162L63.9062 112.25L62.5521 112.524L60.7072 103.387L62.1431 103.095L68.2502 109.552L68.0412 109.598L66.5507 102.198L67.9048 101.924L69.7497 111.043Z" fill="white"/>
<path d="M55 103.708L54.3457 113.009L51.2467 112.79C50.2197 112.716 49.4473 112.405 48.9202 111.848C48.4022 111.29 48.175 110.558 48.2386 109.653C48.3022 108.756 48.6294 108.061 49.2201 107.595C49.8108 107.119 50.6196 106.918 51.6556 106.991L53.3551 107.11L53.6004 103.616L55 103.708ZM53.2733 108.308L51.5648 108.189C50.974 108.143 50.5196 108.271 50.1925 108.555C49.8653 108.839 49.6836 109.232 49.6472 109.744C49.6109 110.256 49.7381 110.677 50.0198 111.015C50.3015 111.354 50.7378 111.546 51.3285 111.582L53.037 111.701L53.2733 108.308Z" fill="white"/>
<path d="M47.1299 103.04L44.9942 112.113L41.768 111.345C40.7138 111.098 39.9777 110.649 39.5415 110.018C39.1143 109.387 38.9871 108.665 39.187 107.851C39.3779 107.046 39.805 106.451 40.4684 106.086C41.1318 105.72 41.9952 105.665 43.0494 105.912L44.9306 106.36L45.7849 102.72L47.1299 103.04ZM42.1588 101.851L43.6765 106.616L42.2224 106.268L40.4139 101.43L42.1588 101.851ZM44.7125 107.284L42.9494 106.863C42.3042 106.707 41.7862 106.753 41.3772 106.982C40.9683 107.211 40.7047 107.576 40.5866 108.07C40.4684 108.582 40.532 109.021 40.7683 109.396C41.0137 109.771 41.4317 110.037 42.0406 110.174L43.9218 110.622L44.7125 107.284Z" fill="white"/>
<path d="M35.7609 99.2534C36.4789 99.5826 37.0514 100.04 37.4604 100.616C37.8784 101.201 38.0965 101.887 38.1238 102.692C38.151 103.488 37.942 104.375 37.5058 105.363C37.0605 106.36 36.5334 107.11 35.9154 107.613C35.2974 108.116 34.6431 108.399 33.9433 108.473C33.2436 108.546 32.5256 108.409 31.8077 108.079C31.0806 107.75 30.5081 107.293 30.0901 106.717C29.672 106.14 29.4539 105.445 29.4266 104.64C29.3994 103.836 29.6084 102.948 30.0446 101.97C30.4899 100.982 31.017 100.232 31.635 99.7198C32.253 99.2076 32.9073 98.9241 33.6162 98.8601C34.3159 98.7961 35.0339 98.9241 35.7609 99.2534ZM35.2338 100.415C34.4795 100.077 33.7616 100.086 33.08 100.442C32.3984 100.799 31.8168 101.512 31.3351 102.583C30.8716 103.625 30.7262 104.522 30.908 105.29C31.0897 106.058 31.5532 106.607 32.3075 106.945C33.0436 107.284 33.7616 107.265 34.4523 106.89C35.1429 106.515 35.7246 105.811 36.1971 104.768C36.6697 103.708 36.8151 102.802 36.6243 102.052C36.4425 101.293 35.979 100.753 35.2338 100.415Z" fill="white"/>
<path d="M27.9271 94.7261C28.536 95.1652 28.9722 95.7231 29.2358 96.3907C29.4993 97.0676 29.572 97.7992 29.4539 98.5858C29.3358 99.3724 28.9995 100.168 28.4361 100.955C27.9817 101.595 27.4909 102.098 26.9547 102.464C26.4185 102.83 25.8642 103.067 25.3007 103.168C24.7373 103.278 24.1738 103.259 23.6195 103.131C23.0651 103.003 22.5471 102.756 22.0563 102.4C21.4202 101.942 20.9658 101.412 20.6932 100.817C20.4296 100.223 20.3569 99.5187 20.475 98.723L21.811 99.1986C21.811 99.7016 21.9018 100.131 22.0654 100.497C22.229 100.863 22.4835 101.174 22.8288 101.421C23.2469 101.714 23.7103 101.869 24.2284 101.878C24.7464 101.888 25.2735 101.75 25.7915 101.458C26.3095 101.165 26.7911 100.708 27.2274 100.095C27.6272 99.537 27.8908 98.9791 28.018 98.4303C28.1452 97.8724 28.1362 97.3602 27.9817 96.8938C27.8272 96.4182 27.5363 96.0249 27.1001 95.7139C26.7548 95.467 26.3822 95.3206 26.0005 95.2841C25.6097 95.2475 25.228 95.3206 24.8463 95.5219C24.4646 95.7139 24.1102 96.0432 23.783 96.5096L23.4831 96.2993C23.9375 95.6591 24.4101 95.156 24.8918 94.7993C25.3734 94.4426 25.8733 94.2414 26.3822 94.214C26.8911 94.1774 27.4091 94.3512 27.9271 94.7261ZM25.7279 93.3817L24.6737 95.2475L23.7649 96.5371L25.5461 97.8816L25.019 98.6315L22.12 96.5462L24.8282 92.7323L25.7279 93.3817Z" fill="white"/>
<path d="M23.2287 91.2689L16.5218 97.6986L14.2317 95.284C13.4865 94.4975 13.1048 93.72 13.0866 92.9518C13.0684 92.1835 13.3592 91.5158 13.959 90.9305C14.5588 90.3634 15.2313 90.0982 15.9856 90.1622C16.7399 90.2171 17.4942 90.6469 18.2394 91.4335L19.5754 92.842L22.2654 90.2628L23.2287 91.2689ZM18.9028 93.5005L17.6487 92.1835C17.1943 91.6987 16.7308 91.4518 16.2674 91.4152C15.8039 91.3878 15.3858 91.5433 15.0223 91.8908C14.6497 92.2475 14.4589 92.6591 14.4589 93.1072C14.4589 93.5554 14.6679 94.0036 15.1041 94.4609L16.44 95.8694L18.9028 93.5005ZM19.7026 87.5464L18.3939 92.3756L17.367 91.2872L18.4666 86.2385L19.7026 87.5464Z" fill="white"/>
<path d="M17.4306 84.7935L9.71498 89.9427L6.49786 85.0678L7.48845 84.4093L9.94218 88.1318L12.2959 86.5678L9.98762 83.0648L10.9782 82.3972L13.2865 85.9001L15.6585 84.3179L13.2047 80.5954L14.2135 79.9277L17.4306 84.7935Z" fill="white"/>
<path d="M12.1505 75.1077C12.405 75.693 12.5231 76.2692 12.5322 76.8454C12.5413 77.4216 12.3959 77.9521 12.1142 78.4277C11.8325 78.9033 11.3872 79.2783 10.7783 79.5618L10.2421 78.3088C10.6147 78.1442 10.8782 77.9247 11.0327 77.6412C11.1872 77.3576 11.2599 77.0375 11.2418 76.69C11.2236 76.3424 11.1418 75.9857 10.9873 75.6199C10.8328 75.254 10.6329 74.9522 10.4057 74.7236C10.1694 74.4858 9.9331 74.3394 9.67863 74.2662C9.42417 74.1931 9.1788 74.2114 8.94251 74.312C8.61535 74.4583 8.39724 74.6687 8.28819 74.9614C8.17913 75.254 8.14278 75.629 8.17913 76.1046L8.2791 77.9521C8.32454 78.7478 8.25183 79.3972 8.07916 79.9002C7.90649 80.4033 7.51571 80.7783 6.925 81.0435C6.25249 81.3362 5.59817 81.3087 4.94384 80.9703C4.29859 80.6228 3.76241 79.9734 3.35345 79.0131C2.96267 78.1076 2.86271 77.3027 3.07173 76.6168C3.27166 75.9308 3.71697 75.4004 4.40765 75.0071L4.95292 76.2601C4.61667 76.4796 4.39856 76.7814 4.30768 77.1564C4.2168 77.5314 4.28042 77.9796 4.50762 78.51C4.72573 79.0222 5.00745 79.3698 5.35279 79.5618C5.69813 79.7539 6.03438 79.7722 6.37064 79.6259C6.64327 79.507 6.82503 79.3149 6.91591 79.0679C6.9977 78.8119 7.02497 78.4643 6.9977 78.0253L6.87956 75.9217C6.80686 75.1992 6.88865 74.5864 7.10676 74.0833C7.32487 73.5712 7.71565 73.1962 8.28819 72.9492C8.76984 72.7389 9.24242 72.6748 9.72407 72.7663C10.2057 72.8578 10.651 73.0956 11.0691 73.4888C11.4871 73.873 11.8506 74.4126 12.1505 75.1077Z" fill="white"/>
<path d="M9.49686 66.9951C9.64226 67.6171 9.66044 68.2024 9.56047 68.7786C9.46051 69.3457 9.22422 69.8396 8.8607 70.2603C8.49719 70.681 7.99735 70.9645 7.34302 71.1292L7.04312 69.803C7.4339 69.7115 7.7338 69.5377 7.94282 69.2908C8.15185 69.0439 8.27908 68.742 8.32452 68.3945C8.36996 68.0469 8.35178 67.6811 8.2609 67.297C8.17002 66.9037 8.0337 66.5744 7.85195 66.3092C7.6611 66.0348 7.45208 65.8427 7.21579 65.7238C6.97951 65.6049 6.73413 65.5775 6.47967 65.6324C6.13433 65.7147 5.87987 65.8793 5.72538 66.1445C5.56179 66.4006 5.45274 66.7665 5.4073 67.2329L5.17101 69.0713C5.07105 69.8579 4.8802 70.4889 4.61665 70.9462C4.3531 71.4035 3.90779 71.7054 3.28073 71.8517C2.56279 72.0163 1.92663 71.87 1.34501 71.4127C0.772468 70.9554 0.363512 70.2146 0.136315 69.1993C-0.081795 68.239 -0.0363555 67.4341 0.290809 66.7939C0.608886 66.1537 1.14507 65.7147 1.89937 65.4586L2.19927 66.7939C1.82667 66.9494 1.56312 67.2055 1.39953 67.553C1.24504 67.9006 1.22686 68.3579 1.35409 68.9158C1.48132 69.4554 1.69035 69.8487 1.99025 70.1048C2.29015 70.3517 2.6264 70.4432 2.98083 70.3609C3.27164 70.2969 3.48975 70.1414 3.61698 69.9127C3.74421 69.6841 3.83509 69.3457 3.88962 68.8975L4.15317 66.8122C4.23496 66.0988 4.42581 65.5135 4.73479 65.047C5.04378 64.5897 5.49818 64.2879 6.10707 64.1415C6.61599 64.0226 7.09765 64.0501 7.55204 64.2239C8.00644 64.3976 8.40631 64.7177 8.74256 65.1842C9.07881 65.6506 9.33327 66.2543 9.49686 66.9951Z" fill="white"/>
<path d="M4.40764 55.2973L3.20804 55.2149L3.48976 51.1815L4.68937 51.2638L4.40764 55.2973Z" fill="white"/>
</g>
<defs>
<clipPath id="clip0_103_1088">
<rect width="110" height="113" fill="white"/>
</clipPath>
</defs>
</svg>
